HIERARCHY
ROOT Hips
{
	OFFSET -1.602300 6.242603 43.997101
	CHANNELS 6 Xposition Yposition Zposition Zrotation Xrotation Yrotation
	JOINT Chest
	{
		OFFSET -0.204900 1.598101 7.917301
		CHANNELS 6 Xposition Yposition Zposition Zrotation Xrotation Yrotation
		JOINT Chest2
		{
			OFFSET 0.000000 0.000000 3.404099
			CHANNELS 6 Xposition Yposition Zposition Zrotation Xrotation Yrotation
			JOINT Neck
			{
				OFFSET 0.000000 0.000000 7.928600
				CHANNELS 6 Xposition Yposition Zposition Zrotation Xrotation Yrotation
				JOINT Head
				{
					OFFSET 0.000000 0.000000 2.173897
					CHANNELS 6 Xposition Yposition Zposition Zrotation Xrotation Yrotation
					End Site
					{
						OFFSET 0.000000 0.000001 10.404503
					}
				}
			}
			JOINT LeftCollar
			{
				OFFSET 2.833800 -1.396299 4.843300
				CHANNELS 6 Xposition Yposition Zposition Zrotation Xrotation Yrotation
				JOINT LeftShoulder
				{
					OFFSET 4.363600 0.000000 0.000000
					CHANNELS 6 Xposition Yposition Zposition Zrotation Xrotation Yrotation
					JOINT LeftElbow
					{
						OFFSET 0.000000 -0.000001 -10.306900
						CHANNELS 6 Xposition Yposition Zposition Zrotation Xrotation Yrotation
						JOINT LeftWrist
						{
							OFFSET 0.000000 -0.000001 -12.404900
							CHANNELS 6 Xposition Yposition Zposition Zrotation Xrotation Yrotation
							End Site
							{
								OFFSET 0.000000 0.000000 -2.173901
							}
						}
					}
				}
			}
			JOINT RightCollar
			{
				OFFSET -2.354800 -1.897200 5.063099
				CHANNELS 6 Xposition Yposition Zposition Zrotation Xrotation Yrotation
				JOINT RightShoulder
				{
					OFFSET -4.375800 0.000000 0.000000
					CHANNELS 6 Xposition Yposition Zposition Zrotation Xrotation Yrotation
					JOINT RightElbow
					{
						OFFSET 0.000000 -0.000001 -10.005001
						CHANNELS 6 Xposition Yposition Zposition Zrotation Xrotation Yrotation
						JOINT RightWrist
						{
							OFFSET 0.000000 -0.000001 -13.174900
							CHANNELS 6 Xposition Yposition Zposition Zrotation Xrotation Yrotation
							End Site
							{
								OFFSET 0.000000 0.000000 -2.173901
							}
						}
					}
				}
			}
		}
	}
	JOINT LeftHip
	{
		OFFSET 2.240600 0.386800 -2.614101
		CHANNELS 6 Xposition Yposition Zposition Zrotation Xrotation Yrotation
		JOINT LeftKnee
		{
			OFFSET 0.000000 -0.000001 -18.592899
			CHANNELS 6 Xposition Yposition Zposition Zrotation Xrotation Yrotation
			JOINT LeftAnkle
			{
				OFFSET 0.000000 -0.000001 -18.765800
				CHANNELS 6 Xposition Yposition Zposition Zrotation Xrotation Yrotation
				End Site
				{
					OFFSET 0.000000 -8.655000 0.000000
				}
			}
		}
	}
	JOINT RightHip
	{
		OFFSET -2.014900 -0.220900 -2.615898
		CHANNELS 6 Xposition Yposition Zposition Zrotation Xrotation Yrotation
		JOINT RightKnee
		{
			OFFSET 0.000000 -0.000001 -18.633900
			CHANNELS 6 Xposition Yposition Zposition Zrotation Xrotation Yrotation
			JOINT RightAnkle
			{
				OFFSET 0.000000 -0.000001 -18.285101
				CHANNELS 6 Xposition Yposition Zposition Zrotation Xrotation Yrotation
				End Site
				{
					OFFSET 0.000000 -7.524500 0.000000
				}
			}
		}
	}
}
MOTION
Frames: 4
Frame Time: 0.041667
-5.532199 24.110401 8.334106 4.655162 19.263205 5.484370 -0.204902 1.598098 7.917304 -4.214642 3.315745 -5.247661 0.000000 -0.000001 3.404097 2.424911 -14.116300 -1.246867 -0.000000 -0.000004 7.928602 2.117422 -8.278863 -1.390717 -0.000001 -0.000002 2.173897 -0.368138 -8.083996 1.195267 2.833801 -1.396302 4.843305 -8.206132 10.959657 18.437561 4.363598 0.000012 -0.000007 -74.177173 -7.835888 -105.738664 0.000005 0.000005 -10.306897 203.249245 -139.476943 202.736325 -0.000001 0.000007 -12.404894 -213.052875 200.482458 -223.643343 -2.354802 -1.897203 5.063105 18.720712 13.518432 -10.721624 -4.375795 0.000010 -0.000006 65.910410 -22.719410 108.356512 -0.000005 0.000004 -10.004994 -55.939601 -15.569621 -46.512574 0.000003 0.000013 -13.174904 87.924861 -191.752083 91.168812 2.240598 0.386801 -2.614102 147.384212 -30.294881 119.219190 -0.000001 -0.000002 -18.592892 -107.459093 38.466710 139.194542 -0.000001 0.000000 -18.765799 8.980532 34.208477 -14.224484 -2.014900 -0.220899 -2.615900 -121.863142 -6.834201 -110.316468 0.000000 0.000001 -18.633883 165.666307 20.770158 -177.466087 -0.000009 0.000000 -18.285086 -28.274956 33.773564 -225.418960
-5.532099 24.109001 8.336510 4.650286 19.254930 5.509238 -0.204902 1.598101 7.917304 -4.215683 3.288427 -5.241036 -0.000000 -0.000000 3.404097 2.397243 -14.149649 -1.245165 -0.000001 0.000001 7.928603 2.138658 -8.357892 -1.429582 0.000000 -0.000001 2.173895 -0.320012 -8.111312 1.167832 2.833803 -1.396300 4.843306 -8.240839 11.042709 18.466139 4.363596 0.000014 -0.000013 -74.221938 -7.679491 -105.862980 0.000003 0.000008 -10.306898 203.084514 -139.662588 202.466136 -0.000006 0.000001 -12.404896 -212.468744 199.726548 -222.623514 -2.354802 -1.897203 5.063104 18.708858 13.466614 -10.986428 -4.375794 0.000011 -0.000014 65.978746 -22.290730 108.439546 -0.000004 0.000006 -10.004998 -55.913264 -15.621315 -46.182365 0.000000 0.000012 -13.174905 87.741259 -191.813118 91.109423 2.240599 0.386801 -2.614103 147.391972 -30.307376 119.196896 -0.000001 -0.000000 -18.592892 -107.467105 38.443382 139.207001 -0.000000 -0.000000 -18.765799 9.022133 34.235872 -14.352831 -2.014898 -0.220897 -2.615901 -121.847733 -6.727744 -110.292727 -0.000000 -0.000001 -18.633881 165.735346 20.751136 -177.455118 -0.000008 -0.000001 -18.285088 -28.288929 33.778280 -225.413209
-5.532299 24.108999 8.338806 4.654360 19.293213 5.395197 -0.204901 1.598100 7.917307 -4.234260 3.200318 -5.133720 -0.000000 0.000001 3.404104 2.376012 -14.177349 -1.248511 -0.000001 -0.000002 7.928601 2.027894 -8.421377 -1.337912 -0.000000 0.000001 2.173905 -0.160291 -8.118763 1.029921 2.833800 -1.396301 4.843304 -8.365593 11.158033 18.678634 4.363596 0.000014 -0.000007 -74.241042 -7.453700 -106.104339 -0.000002 0.000005 -10.306894 202.940111 -139.913556 202.275110 -0.000003 0.000004 -12.404898 -211.985617 199.186908 -221.689513 -2.354802 -1.897200 5.063106 18.749400 13.520292 -11.234858 -4.375795 0.000010 -0.000008 66.216109 -22.148958 108.790625 -0.000001 0.000006 -10.004997 -55.690938 -15.316573 -45.874163 0.000001 0.000007 -13.174906 87.868970 -191.882717 91.176598 2.240599 0.386804 -2.614104 147.338997 -30.216808 119.080277 0.000000 -0.000002 -18.592892 -107.450350 38.427030 139.195854 0.000000 0.000001 -18.765799 9.024913 34.266250 -14.360140 -2.014895 -0.220893 -2.615902 -121.855793 -6.709060 -110.378896 0.000000 0.000002 -18.633884 165.795356 20.733307 -177.437823 -0.000009 -0.000004 -18.285084 -28.310682 33.776470 -225.390915
-5.532598 24.110201 8.340702 4.665853 19.296205 5.438297 -0.204900 1.598104 7.917307 -4.248288 3.158682 -5.177495 -0.000000 0.000005 3.404101 2.347735 -14.211651 -1.252410 -0.000000 -0.000001 7.928603 1.822863 -8.481593 -1.205855 0.000000 -0.000004 2.173906 0.093522 -8.103803 0.837568 2.833800 -1.396302 4.843310 -8.489092 11.284156 18.929301 4.363596 0.000016 -0.000007 -74.263165 -7.210393 -106.365771 -0.000001 0.000005 -10.306894 203.318585 -140.221243 202.504481 -0.000003 0.000005 -12.404896 -211.797213 198.382448 -220.645464 -2.354802 -1.897200 5.063109 18.863287 13.615932 -11.526841 -4.375795 0.000008 -0.000003 66.416070 -22.116979 109.159182 -0.000003 0.000003 -10.004997 -55.995708 -14.583122 -45.587189 0.000002 0.000007 -13.174905 88.786975 -192.638041 92.032558 2.240601 0.386806 -2.614104 147.352630 -30.250249 119.109606 -0.000001 -0.000001 -18.592897 -107.415113 38.423011 139.162864 0.000000 0.000001 -18.765800 8.986746 34.301794 -14.239029 -2.014899 -0.220897 -2.615900 -121.853047 -6.584779 -110.348044 0.000000 0.000000 -18.633879 165.837075 20.719138 -177.415803 -0.000008 0.000000 -18.285088 -28.336472 33.767800 -225.354537
